<svg width="12" height="12" viewBox="0 0 12 12" fill="none" xmlns="http://www.w3.org/2000/svg">
<path fill-rule="evenodd" clip-rule="evenodd" d="M11.8546 11.8546C12.0485 11.6607 12.0485 11.3463 11.8546 11.1524L6.70214 6L11.8546 0.847552C12.0485 0.653662 12.0485 0.339306 11.8546 0.145417C11.6607 -0.0484724 11.3463 -0.0484722 11.1524 0.145417L6 5.29787L0.847552 0.145417C0.653663 -0.0484722 0.339306 -0.0484724 0.145417 0.145417C-0.0484723 0.339306 -0.0484723 0.653662 0.145417 0.847552L5.29787 6L0.145417 11.1524C-0.0484719 11.3463 -0.0484718 11.6607 0.145417 11.8546C0.339307 12.0485 0.653663 12.0485 0.847552 11.8546L6 6.70214L11.1524 11.8546C11.3463 12.0485 11.6607 12.0485 11.8546 11.8546Z" fill="white" fill-opacity="0.7"/>
</svg>
