<svg width="48" height="48" viewBox="0 0 48 48" fill="none" xmlns="http://www.w3.org/2000/svg">
<rect width="48" height="48" rx="16" fill="white" fill-opacity="1"/>
<path d="M51.976 21.062H59.41V22.126H51.976V21.062ZM48.728 17.884C50.9867 17.296 52.8953 16.5773 54.454 15.728C56.022 14.8693 57.3613 13.8567 58.472 12.69H53.166L53.376 11.57H60.04V12.69C58.7987 14.1553 57.3193 15.392 55.602 16.4C53.8847 17.3987 51.7427 18.2573 49.176 18.976L48.728 17.884ZM51.962 12.872C52.9047 13.5627 53.74 14.1973 54.468 14.776L53.67 15.672C53.53 15.56 53.3853 15.448 53.236 15.336C53.096 15.224 52.9513 15.1073 52.802 14.986C52.522 14.7527 52.242 14.5287 51.962 14.314C51.6913 14.09 51.4393 13.8847 51.206 13.698L51.962 12.872ZM49.19 14.454C50.086 13.9127 50.9773 13.2267 51.864 12.396C52.76 11.556 53.4787 10.7533 54.02 9.988L55.182 10.38C54.5847 11.2853 53.8333 12.1813 52.928 13.068C52.0227 13.9453 51.024 14.748 49.932 15.476L49.19 14.454ZM51.36 17.548L52.312 17.1H60.068V22.994H58.878V18.192H52.536V22.994H51.36V17.548ZM64.59 11.626H65.71V22.924H64.59V11.626ZM62.91 14.062H67.222V15.196H62.91V14.062ZM66.564 20.964C66.9 20.3667 67.25 19.62 67.614 18.724C67.9873 17.8187 68.3 16.946 68.552 16.106L69.574 16.428C69.3407 17.2493 69.042 18.1173 68.678 19.032C68.314 19.9467 67.9547 20.74 67.6 21.412L66.564 20.964ZM73.382 16.036C74.0447 17.744 74.5347 19.0133 74.852 19.844C75.0667 20.404 75.2113 20.7913 75.286 21.006L74.278 21.44C73.9047 20.3387 73.2887 18.682 72.43 16.47L73.382 16.036ZM67.208 14.608C67.5907 14.048 67.9547 13.376 68.3 12.592C68.6547 11.7987 68.9347 11.01 69.14 10.226L70.274 10.408C70.0407 11.276 69.742 12.13 69.378 12.97C69.014 13.8007 68.5893 14.622 68.104 15.434L67.208 14.608ZM69.63 21.594C69.9847 21.594 70.218 21.5473 70.33 21.454C70.442 21.3607 70.498 21.1647 70.498 20.866V14.216H71.674V21.314C71.674 21.8367 71.5527 22.21 71.31 22.434C71.0673 22.658 70.666 22.77 70.106 22.77H68.846L68.622 21.594H69.63ZM62.672 19.256C63.1107 18.556 63.5353 17.744 63.946 16.82C64.366 15.8867 64.688 15 64.912 14.16L65.346 15.406C65.094 16.274 64.7767 17.1653 64.394 18.08C64.0113 18.9947 63.624 19.746 63.232 20.334L62.672 19.256ZM65.402 15.784C65.6913 16.036 66.032 16.344 66.424 16.708C66.8253 17.0627 67.1847 17.3893 67.502 17.688L66.844 18.556C66.4893 18.192 66.1113 17.8327 65.71 17.478C65.6073 17.4033 65.3133 17.1233 64.828 16.638L65.402 15.784ZM63.036 11.374C63.6427 11.3087 64.338 11.2107 65.122 11.08C65.906 10.9493 66.6013 10.814 67.208 10.674L67.376 11.766C66.8627 11.8967 66.2187 12.0227 65.444 12.144C64.6787 12.2653 63.9087 12.3727 63.134 12.466L63.036 11.374ZM68.804 13.124L69.154 11.99H74.894V13.124L73.788 15.434L72.738 15.028L73.662 13.124H68.804Z" fill="white" fill-opacity="0.9"/>
<path d="M430.894 13.688V14.724H427.24V13.688H430.894ZM430.012 9.74V14.08H428.934V9.74H430.012ZM430.068 21.416C430.469 20.7347 430.777 20.0767 430.992 19.442C431.216 18.798 431.37 18.1073 431.454 17.37C431.547 16.6327 431.594 15.7273 431.594 14.654V10.874C432.537 10.818 433.545 10.7107 434.618 10.552C435.691 10.3933 436.723 10.2067 437.712 9.992L437.936 11.182C437.143 11.3593 436.275 11.5227 435.332 11.672C434.399 11.812 433.507 11.924 432.658 12.008V14.752C432.658 15.9093 432.607 16.8893 432.504 17.692C432.411 18.4947 432.243 19.246 432 19.946C431.757 20.6367 431.412 21.374 430.964 22.158L430.068 21.416ZM431.734 21.626C432.705 20.982 433.498 20.338 434.114 19.694C434.73 19.0407 435.225 18.322 435.598 17.538C435.981 16.7447 436.279 15.816 436.494 14.752H432.112V13.618H437.628V14.78C437.357 16.012 437.017 17.076 436.606 17.972C436.195 18.8587 435.659 19.6707 434.996 20.408C434.333 21.136 433.479 21.8593 432.434 22.578L431.734 21.626ZM425.826 21.92C426.078 21.3787 426.265 20.8373 426.386 20.296C426.517 19.7453 426.605 19.1107 426.652 18.392C426.699 17.664 426.722 16.684 426.722 15.452V9.978H427.814V15.844C427.814 17.5053 427.744 18.826 427.604 19.806C427.473 20.786 427.226 21.71 426.862 22.578L425.826 21.92ZM430.096 16.376V22.298H429.004V17.496H427.1V16.376H430.096ZM433.806 14.416C434.058 15.6293 434.371 16.656 434.744 17.496C435.117 18.336 435.575 19.064 436.116 19.68C436.657 20.2867 437.339 20.856 438.16 21.388L437.53 22.424C436.681 21.7893 435.953 21.122 435.346 20.422C434.749 19.722 434.24 18.91 433.82 17.986C433.409 17.062 433.087 15.97 432.854 14.71L433.806 14.416ZM451.824 11.896V13.1H440.19V11.896H451.824ZM446.616 9.698V22.508H445.384V9.698H446.616ZM449.36 18.938V20.1H442.654V18.938H449.36ZM439.672 19.47C440.969 18.35 442.029 17.2347 442.85 16.124C443.671 15.0133 444.362 13.758 444.922 12.358L445.79 12.68C445.445 13.6973 445.034 14.64 444.558 15.508C444.082 16.376 443.508 17.2207 442.836 18.042C442.173 18.8633 441.371 19.722 440.428 20.618L439.672 19.47ZM447.064 12.302C447.615 13.7673 448.31 15.0553 449.15 16.166C449.999 17.2673 451.054 18.3173 452.314 19.316L451.544 20.506C450.312 19.4513 449.234 18.2707 448.31 16.964C447.395 15.6573 446.691 14.262 446.196 12.778L447.064 12.302ZM464.452 10.244V14.066H455.534V10.244H464.452ZM456.794 13.03H463.22V11.294H456.794V13.03ZM466.258 15.27V16.334H453.77V15.27H466.258ZM456.332 15.802L457.634 15.83L457.256 17.692H464.354L464.284 18.546C464.265 18.882 464.242 19.204 464.214 19.512C464.186 19.82 464.163 20.072 464.144 20.268C464.079 20.8093 463.962 21.22 463.794 21.5C463.635 21.7707 463.379 21.9573 463.024 22.06C462.669 22.172 462.151 22.228 461.47 22.228H458.488L458.264 21.052H461.106C461.582 21.052 461.927 21.0287 462.142 20.982C462.366 20.9353 462.525 20.842 462.618 20.702C462.711 20.562 462.772 20.324 462.8 19.988C462.809 19.932 462.814 19.8713 462.814 19.806C462.823 19.7313 462.833 19.6567 462.842 19.582C462.879 19.3393 462.907 19.0547 462.926 18.728H455.716L456.332 15.802Z" fill="white" fill-opacity="0.9"/>
<path d="M590.894 13.688V14.724H587.24V13.688H590.894ZM590.012 9.74V14.08H588.934V9.74H590.012ZM590.068 21.416C590.469 20.7347 590.777 20.0767 590.992 19.442C591.216 18.798 591.37 18.1073 591.454 17.37C591.547 16.6327 591.594 15.7273 591.594 14.654V10.874C592.537 10.818 593.545 10.7107 594.618 10.552C595.691 10.3933 596.723 10.2067 597.712 9.992L597.936 11.182C597.143 11.3593 596.275 11.5227 595.332 11.672C594.399 11.812 593.507 11.924 592.658 12.008V14.752C592.658 15.9093 592.607 16.8893 592.504 17.692C592.411 18.4947 592.243 19.246 592 19.946C591.757 20.6367 591.412 21.374 590.964 22.158L590.068 21.416ZM591.734 21.626C592.705 20.982 593.498 20.338 594.114 19.694C594.73 19.0407 595.225 18.322 595.598 17.538C595.981 16.7447 596.279 15.816 596.494 14.752H592.112V13.618H597.628V14.78C597.357 16.012 597.017 17.076 596.606 17.972C596.195 18.8587 595.659 19.6707 594.996 20.408C594.333 21.136 593.479 21.8593 592.434 22.578L591.734 21.626ZM585.826 21.92C586.078 21.3787 586.265 20.8373 586.386 20.296C586.517 19.7453 586.605 19.1107 586.652 18.392C586.699 17.664 586.722 16.684 586.722 15.452V9.978H587.814V15.844C587.814 17.5053 587.744 18.826 587.604 19.806C587.473 20.786 587.226 21.71 586.862 22.578L585.826 21.92ZM590.096 16.376V22.298H589.004V17.496H587.1V16.376H590.096ZM593.806 14.416C594.058 15.6293 594.371 16.656 594.744 17.496C595.117 18.336 595.575 19.064 596.116 19.68C596.657 20.2867 597.339 20.856 598.16 21.388L597.53 22.424C596.681 21.7893 595.953 21.122 595.346 20.422C594.749 19.722 594.24 18.91 593.82 17.986C593.409 17.062 593.087 15.97 592.854 14.71L593.806 14.416ZM611.824 11.896V13.1H600.19V11.896H611.824ZM606.616 9.698V22.508H605.384V9.698H606.616ZM609.36 18.938V20.1H602.654V18.938H609.36ZM599.672 19.47C600.969 18.35 602.029 17.2347 602.85 16.124C603.671 15.0133 604.362 13.758 604.922 12.358L605.79 12.68C605.445 13.6973 605.034 14.64 604.558 15.508C604.082 16.376 603.508 17.2207 602.836 18.042C602.173 18.8633 601.371 19.722 600.428 20.618L599.672 19.47ZM607.064 12.302C607.615 13.7673 608.31 15.0553 609.15 16.166C609.999 17.2673 611.054 18.3173 612.314 19.316L611.544 20.506C610.312 19.4513 609.234 18.2707 608.31 16.964C607.395 15.6573 606.691 14.262 606.196 12.778L607.064 12.302ZM613.798 14.136H616.29V19.666L617.718 18.364L617.998 19.68L615.52 21.78L614.75 20.954C614.909 20.786 615.011 20.646 615.058 20.534C615.114 20.4127 615.142 20.2587 615.142 20.072V15.34H613.798V14.136ZM615.282 9.852C615.562 10.2067 615.87 10.6033 616.206 11.042C616.542 11.4807 616.845 11.8913 617.116 12.274L616.15 13.03C615.879 12.6473 615.576 12.232 615.24 11.784C614.904 11.3267 614.596 10.916 614.316 10.552L615.282 9.852ZM622.17 16.824H623.346V20.408C623.346 20.6787 623.383 20.856 623.458 20.94C623.542 21.0147 623.705 21.052 623.948 21.052H624.522C624.699 21.052 624.825 21.038 624.9 21.01C624.984 20.9727 625.045 20.912 625.082 20.828C625.119 20.744 625.143 20.604 625.152 20.408C625.161 20.3053 625.166 20.1747 625.166 20.016C625.166 19.8573 625.166 19.6847 625.166 19.498C625.166 19.3207 625.166 19.1573 625.166 19.008C625.166 18.8587 625.166 18.7373 625.166 18.644L626.23 18.84C626.23 19.0733 626.221 19.4047 626.202 19.834C626.193 20.254 626.179 20.618 626.16 20.926C626.123 21.4113 625.992 21.7427 625.768 21.92C625.544 22.1067 625.18 22.2 624.676 22.2H623.5C623.015 22.2 622.669 22.0973 622.464 21.892C622.268 21.696 622.17 21.346 622.17 20.842V16.824ZM616.948 21.668C617.583 21.276 618.073 20.9213 618.418 20.604C618.763 20.2773 619.025 19.89 619.202 19.442C619.389 18.9847 619.501 18.4013 619.538 17.692C619.547 17.5333 619.552 17.2487 619.552 16.838H620.756C620.747 17.2673 620.733 17.5753 620.714 17.762C620.667 18.5833 620.532 19.2787 620.308 19.848C620.084 20.408 619.767 20.9027 619.356 21.332C618.955 21.752 618.409 22.1907 617.718 22.648L616.948 21.668ZM618.054 12.456H625.18V17.342H618.054V12.456ZM619.188 13.576V16.222H624.032V13.576H619.188ZM619.37 9.572C619.603 9.89867 619.865 10.272 620.154 10.692L620.924 11.826L619.916 12.47L619.496 11.77C619.001 10.986 618.647 10.4493 618.432 10.16L619.37 9.572ZM621.68 12.834C621.904 12.498 622.203 12.0267 622.576 11.42C622.959 10.8133 623.318 10.2253 623.654 9.656L624.69 10.188C624.485 10.5333 624.279 10.874 624.074 11.21C623.869 11.5367 623.673 11.854 623.486 12.162C623.309 12.4327 623.061 12.8107 622.744 13.296L621.68 12.834ZM631.746 21.822C632.493 21.1407 633.029 20.5387 633.356 20.016C633.683 19.4933 633.897 18.882 634 18.182C634.103 17.4727 634.154 16.4227 634.154 15.032V10.342H639.502V20.548C639.502 20.9773 639.446 21.3133 639.334 21.556C639.222 21.7987 639.035 21.9667 638.774 22.06C638.513 22.1627 638.144 22.214 637.668 22.214H636.268L636.016 21.024H637.402C637.663 21.024 637.859 21.0053 637.99 20.968C638.13 20.9213 638.223 20.842 638.27 20.73C638.317 20.6087 638.34 20.436 638.34 20.212V11.504H635.316V15.606C635.316 16.838 635.241 17.846 635.092 18.63C634.943 19.4047 634.686 20.0953 634.322 20.702C633.958 21.2993 633.431 21.9293 632.74 22.592L631.746 21.822ZM634.644 13.814H638.9V14.934H634.644V13.814ZM634.63 17.132H638.9V18.252H634.63V17.132ZM628.47 10.622H632.74V20.128H629.016V18.966H631.662V11.784H629.548V21.08H628.47V10.622ZM628.988 14.738H632.194V15.886H628.988V14.738Z" fill="white" fill-opacity="0.9"/>
<path d="M1081.47 12.148H1084.94V13.296H1081.47V12.148ZM1088.65 17.174H1089.75V22.438H1088.65V17.174ZM1084.85 17.93H1093.52V18.938H1084.85V17.93ZM1082.04 21.038C1082.3 21.038 1082.47 20.996 1082.56 20.912C1082.65 20.8187 1082.7 20.632 1082.7 20.352V9.768H1083.78V20.758C1083.78 21.1313 1083.73 21.416 1083.65 21.612C1083.57 21.8173 1083.42 21.962 1083.22 22.046C1083.02 22.13 1082.74 22.172 1082.36 22.172H1081.51L1081.27 21.038H1082.04ZM1081.16 16.6C1081.63 16.4227 1082.24 16.1893 1082.98 15.9C1083.72 15.6013 1084.3 15.3587 1084.7 15.172L1084.8 15.816L1084.88 16.362C1084.19 16.67 1083.03 17.1367 1081.41 17.762L1081.16 16.6ZM1084.32 21.08C1085.3 20.7347 1086.14 20.3287 1086.84 19.862C1087.55 19.3953 1088.2 18.8493 1088.79 18.224L1089.32 19.008C1088.72 19.652 1088.07 20.2213 1087.36 20.716C1086.65 21.2107 1085.81 21.682 1084.83 22.13L1084.32 21.08ZM1089.67 18.266C1090.24 18.8913 1090.85 19.428 1091.5 19.876C1092.17 20.3147 1092.93 20.6833 1093.8 20.982L1093.35 22.046C1092.47 21.6633 1091.69 21.234 1091.01 20.758C1090.35 20.282 1089.73 19.7173 1089.14 19.064L1089.67 18.266ZM1086.06 10.132H1092.34V13.114H1086.06V10.132ZM1087.22 11.098V12.19H1091.18V11.098H1087.22ZM1089.6 13.912H1093.1V16.852H1089.6V13.912ZM1090.54 14.808V15.97H1092.15V14.808H1090.54ZM1085.29 13.912H1088.75V16.852H1085.29V13.912ZM1086.25 14.808V15.97H1087.81V14.808H1086.25ZM1103.33 12.456V22.48H1102.16V12.456H1103.33ZM1095.12 15.858C1095.67 15.0647 1096.2 14.136 1096.73 13.072C1097.26 12.008 1097.7 10.916 1098.06 9.796L1099.25 10.16C1098.79 11.532 1098.27 12.7827 1097.69 13.912C1097.12 15.032 1096.46 16.11 1095.69 17.146L1095.12 15.858ZM1098.59 15.088C1099.17 14.3413 1099.7 13.5013 1100.18 12.568C1100.68 11.6347 1101.1 10.6547 1101.46 9.628L1102.59 9.95C1102.2 11.1167 1101.74 12.2087 1101.21 13.226C1100.68 14.234 1100.08 15.158 1099.39 15.998L1098.59 15.088ZM1098.13 12.694V22.41H1096.94V13.24L1098.13 12.694ZM1106.89 15.004V16.208H1102.61V15.004H1106.89ZM1107.58 11.686V12.876H1100.95V11.686H1107.58ZM1107.14 18.336V19.554H1102.61V18.336H1107.14Z" fill="white" fill-opacity="0.9"/>
</svg>
