<svg width="16" height="16" viewBox="0 0 16 16" fill="none" xmlns="http://www.w3.org/2000/svg">
<path d="M2.3429 4.47614L7.67624 1.51318C7.87759 1.40132 8.12241 1.40132 8.32376 1.51318L13.6571 4.47614C13.8687 4.59372 14 4.8168 14 5.05892V10.941C14 11.1832 13.8687 11.4062 13.6571 11.5238L8.32376 14.4868C8.12241 14.5986 7.87759 14.5986 7.67624 14.4868L2.3429 11.5238C2.13126 11.4062 2 11.1832 2 10.941V5.05892C2 4.8168 2.13126 4.59372 2.3429 4.47614Z" stroke="white" stroke-width="1.5" stroke-linecap="round" stroke-linejoin="round"/>
<path d="M8.00004 14.3333V8.00002M8.00004 8.00002L13.6667 4.85187M8.00004 8.00002L2.33337 4.85187" stroke="white" stroke-width="1.5" stroke-linecap="round" stroke-linejoin="round"/>
</svg>
